<?xml version="1.0" encoding="UTF-8" standalone="no"?>
<svg
   id="Layer_2"
   version="1.1"
   viewBox="0 0 1800 500"
   width="1800"
   height="500"
   xmlns="http://www.w3.org/2000/svg"
   xmlns:svg="http://www.w3.org/2000/svg">
  <defs
     id="defs16" />
  <!-- Generator: Adobe Illustrator 29.0.1, SVG Export Plug-In . SVG Version: 2.1.0 Build 192)  -->
  <style
     type="text/css"
     id="style1">.cls-1{fill:#fff;} .cls-2{fill:#EA1C1C;} .cls-3{fill:#808080;} .cls-4{fill:#fff;}</style>
  <g
     id="Isolation_Mode">
    <path
       class="cls-1"
       d="m 325,150 c -96.6,0 -175,78.4 -175,175 0,96.6 78.4,175 175,175 96.6,0 175,-78.4 175,-175 0,-96.6 -78.4,-175 -175,-175 z m 0,250 c -41.4,0 -75,-33.6 -75,-75 0,-41.4 33.6,-75 75,-75 41.4,0 75,33.6 75,75 0,41.4 -33.6,75 -75,75 z"
       id="path1"
       style="fill:#333333" />
    <path
       class="cls-1"
       d="m 450,0 v 0 c 27.6,0 50,22.4 50,50 V 325 H 400 V 50 C 400,22.4 422.4,0 450,0 Z"
       id="path2"
       style="fill:#333333" />
    <path
       class="cls-1"
       d="m 50,150 v 0 c 27.6,0 50,22.4 50,50 v 250 c 0,27.6 -22.4,50 -50,50 v 0 C 22.4,500 0,477.6 0,450 V 200 c 0,-27.6 22.4,-50 50,-50 z"
       id="path3"
       style="fill:#333333" />
    <path
       class="cls-2"
       d="m 1550.3,325 c 41.2,0 74.7,-33.6 74.7,-75.3 0,-41.7 -33.6,-74.7 -74.7,-74.7 -41.1,0 -75.3,33.6 -75.3,74.7 0,41.1 33.6,75.3 75.3,75.3 z"
       id="path4" />
    <path
       class="cls-3"
       d="M 1549.7,0 C 1688,0 1800,112.2 1800,250 1800,387.8 1688,500 1549.7,500 1411.4,500 1300,388.4 1300,250 1300,111.6 1412,0 1549.7,0 Z m -0.3,399.7 c 83.1,0 150.3,-67.2 150.3,-150.3 0,-83.1 -67.2,-149.7 -150.3,-149.7 -83.1,0 -149.7,67.3 -149.7,149.7 0,82.4 67.2,150.3 149.7,150.3 z"
       id="path5" />
    <path
       class="cls-3"
       d="M 850,150 C 850,67.6 783.6,0.8 701.4,0 v 0 c 0,0 -101.4,0 -101.4,0 -27.6,0 -50,22.4 -50,50 0,27.6 22.4,50 50,50 h 100 c 27.3,0.4 49.3,22.6 49.3,50 0,27.4 -22,49.6 -49.3,50 v 0 c 0,0 -50,0 -50,0 -27.6,0 -50,22.4 -50,50 0,27.6 22.4,50 50,50 h 50 c 27.3,0.4 49.3,22.6 49.3,50 0,27.4 -22,49.6 -49.3,50 v 0 c 0,0 -100,0 -100,0 -27.6,0 -50,22.4 -50,50 v 0 c 0,27.6 22.4,50 50,50 h 100 c 0,0 0,0 0,0 h 1.4 C 783.6,499.2 850,432.4 850,350 850,267.6 835.5,276.5 811.8,250 835.6,223.5 850,188.4 850,150 Z"
       id="path6" />
    <path
       class="cls-3"
       d="m 1075,150 c -26.7,0 -51.9,6 -74.5,16.6 4.2,-37.5 35.9,-66.6 74.5,-66.6 h 100 c 27.6,0 50,-22.4 50,-50 0,-27.6 -22.4,-50 -50,-50 H 1073.7 C 978,0.7 900.6,78.2 900,173.9 v 0 155.6 0 c 2.4,94.6 79.8,170.5 174.9,170.5 95.1,0 175,-78.4 175,-175 0,-96.6 -78.3,-175 -175,-175 z m 0,250 c -41.4,0 -75,-33.6 -75,-75 0,-41.4 33.6,-75 75,-75 41.4,0 75,33.6 75,75 0,41.4 -33.6,75 -75,75 z"
       id="path7" />
    <path
       class="cls-3"
       d="M 1549.7,0 C 1688,0 1800,112.2 1800,250 1800,387.8 1688,500 1549.7,500 1411.4,500 1300,388.4 1300,250 1300,111.6 1412,0 1549.7,0 Z m -0.3,399.7 c 83.1,0 150.3,-67.2 150.3,-150.3 0,-83.1 -67.2,-149.7 -150.3,-149.7 -83.1,0 -149.7,67.3 -149.7,149.7 0,82.4 67.2,150.3 149.7,150.3 z"
       id="path8" />
  </g>
</svg>
